<svg xmlns="http://www.w3.org/2000/svg" width="1011.417" height="230.979" viewBox="0 0 1011.417 230.979">
  <g id="logo" transform="translate(-0.583 -0.181)">
    <path id="Path_1" data-name="Path 1" d="M99.16,188.73a9.67,9.67,0,0,1-4.73,7.57,47,47,0,0,1-20.92,4.91,47.64,47.64,0,1,1,13-93.45V81.69a73.07,73.07,0,1,0-13,145,71.28,71.28,0,0,0,45.38-16.1,14.921,14.921,0,0,0,2.24-2.79l.48-.74c.3-.46.9-1.56,1-1.7a19.661,19.661,0,0,0,1.27-3.64.34.34,0,0,1,0-.12,1.526,1.526,0,0,1,.1-.45c.05-.15.08-.52.14-.78.06-.43.12-.85.18-1.28s.12-1.49.16-1.86V170.37L99.14,133.92Z" fill="#008fd5"/>
    <path id="Path_2" data-name="Path 2" d="M245.33,85.08a62.54,62.54,0,0,0-26.56,20.44.079.079,0,0,1-.07-.05l-46.46,66.85L125.8,105.48a.28.28,0,0,1-.07.05A62.57,62.57,0,0,0,99.16,85.09V111.8L172.26,217l73.07-105.2Z" fill="#008fd5"/>
    <path id="Path_3" data-name="Path 3" d="M271,80.49a71.35,71.35,0,0,0-13,1.2v26.07a48.16,48.16,0,0,1,13-1.83,47.64,47.64,0,1,1-21,90.37,9.7,9.7,0,0,1-4.71-7.57V133.92l-25.28,36.47v26.8a16.447,16.447,0,0,0,.17,1.87,12.938,12.938,0,0,0,.18,1.29,6,6,0,0,0,.14.77,2.191,2.191,0,0,0,.08.46.39.39,0,0,0,0,.1,18.79,18.79,0,0,0,1.25,3.64c.07.15.69,1.24,1,1.7l.47.74a16.791,16.791,0,0,0,2.24,2.8,71.48,71.48,0,0,0,45.4,16.1A73.08,73.08,0,0,0,271,80.5h0" fill="#008fd5"/>
    <path id="Path_4" data-name="Path 4" d="M125.81,83.46a48.3,48.3,0,0,1-1.09-10.11,47.533,47.533,0,1,1,95.06-1v1a48.3,48.3,0,0,1-1.09,10.11,72.7,72.7,0,0,1,26.59-12.13,73.06,73.06,0,0,0-146.07,0A72.93,72.93,0,0,1,125.8,83.46" fill="#008fd5"/>
    <g id="CMC_Telecom" data-name="CMC Telecom">
      <g id="Group_905" data-name="Group 905">
        <path id="Path_5091" data-name="Path 5091" d="M380.33,120.84v-.23c0-22.66,17-41.23,41.11-41.23,14.58,0,23.57,5.13,31.2,12.42l-9,10.36c-6.38-5.92-13.21-9.91-22.32-9.91-15.26,0-26.31,12.64-26.31,28.13v.23c0,15.6,11,28.35,26.31,28.35,9.68,0,16.06-4,22.89-10.36l9,9.11c-8.09,8.77-17.54,14.12-32.34,14.12C397.64,161.84,380.33,143.73,380.33,120.84Z" fill="#008fd5"/>
        <path id="Path_5092" data-name="Path 5092" d="M467.88,80.75H482.8l24.2,37.7,24.26-37.7h14.92v79.72h-14V103.3L507,140.88h-.45l-24.94-37.35v56.94H467.88Z" fill="#008fd5"/>
        <path id="Path_5093" data-name="Path 5093" d="M563.17,120.84v-.23c0-22.66,17-41.23,41.11-41.23,14.58,0,23.57,5.13,31.2,12.42l-9,10.36c-6.38-5.92-13.21-9.91-22.32-9.91-15.26,0-26.31,12.64-26.31,28.13v.23c0,15.6,11,28.35,26.31,28.35,9.68,0,16.06-4,22.89-10.36l9,9.11c-8.09,8.77-17.54,14.12-32.34,14.12C580.48,161.84,563.17,143.73,563.17,120.84Z" fill="#008fd5"/>
        <path id="Path_5094" data-name="Path 5094" d="M681.34,120.84v-.23c0-22.66,17-41.23,41.11-41.23,14.58,0,23.57,5.13,31.2,12.42l-9,10.36c-6.38-5.92-13.21-9.91-22.32-9.91-15.26,0-26.31,12.64-26.31,28.13v.23c0,15.6,11,28.35,26.31,28.35,9.68,0,16.06-4,22.89-10.36l9,9.11c-8.09,8.77-17.54,14.12-32.34,14.12C698.65,161.84,681.34,143.73,681.34,120.84Z" fill="#008fd5"/>
        <path id="Path_5095" data-name="Path 5095" d="M765.36,120.84v-.23c0-22.32,17.31-41.23,41.79-41.23s41.57,18.56,41.57,41v.23c0,22.32-17.31,41.23-41.79,41.23S765.36,143.28,765.36,120.84Zm68.67,0v-.23c0-15.49-11.16-28.35-27.1-28.35s-26.87,12.64-26.87,28.13v.23c0,15.49,11.16,28.35,27.1,28.35S834,136.33,834,120.84Z" fill="#008fd5"/>
        <path id="Path_5096" data-name="Path 5096" d="M865.66,80.75h35.53c10,0,17.88,3,23,8a24.3,24.3,0,0,1,6.6,17.2v.23c0,13-7.86,21.18-19,24.14l21.52,30.18H916.79L897.2,132.71H879.67V160.5h-14Zm34.51,39.52c10,0,16.4-5.12,16.4-13.32v-.23c0-8.65-6-13.21-16.51-13.21H879.67v26.76Z" fill="#008fd5"/>
        <path id="Path_5097" data-name="Path 5097" d="M948,80.75h31.43c18.67,0,30.29,10.59,30.29,26.65v.23c0,17.77-14.23,27.22-31.89,27.22H962v25.62H948Zm30.29,41.45c10.59,0,17.2-5.92,17.2-14.23v-.23c0-9.45-6.72-14.23-17.2-14.23H962v28.7Z" fill="#008fd5"/>
      </g>
    </g>
    <g id="Aspire_to_inspire_the_Digital_World" data-name="Aspire to inspire the Digital World">
      <g id="Group_906" data-name="Group 906">
        <path id="Path_5098" data-name="Path 5098" d="M379.93,222.05,391.86,196a2.17,2.17,0,0,1,2.1-1.47h.17a2.11,2.11,0,0,1,2.06,1.47l11.93,26a2.211,2.211,0,0,1,.21.84,1.59,1.59,0,0,1-1.6,1.6,1.81,1.81,0,0,1-1.64-1.22L402,216.46H385.89l-3.07,6.85a1.66,1.66,0,0,1-1.6,1.13,1.51,1.51,0,0,1-1.51-1.51,1.91,1.91,0,0,1,.22-.88Zm20.8-8.61-6.77-15-6.76,15Z" fill="#008fd5"/>
        <path id="Path_5099" data-name="Path 5099" d="M410.88,221.92a1.46,1.46,0,0,1-.59-1.18,1.41,1.41,0,0,1,1.43-1.39,1.3,1.3,0,0,1,.8.25,12.2,12.2,0,0,0,6.89,2.31c2.61,0,4.5-1.34,4.5-3.44v-.09c0-2.18-2.56-3-5.42-3.82-3.4-1-7.18-2.14-7.18-6.13v-.08c0-3.74,3.11-6.22,7.39-6.22a15.15,15.15,0,0,1,6.93,1.85,1.58,1.58,0,0,1,.8,1.35,1.41,1.41,0,0,1-1.43,1.39,1.58,1.58,0,0,1-.71-.17,11.75,11.75,0,0,0-5.67-1.68c-2.56,0-4.2,1.35-4.2,3.15v.08c0,2.06,2.69,2.85,5.59,3.74,3.36,1,7,2.31,7,6.22v.09c0,4.11-3.4,6.51-7.73,6.51a15,15,0,0,1-8.4-2.74Z" fill="#008fd5"/>
        <path id="Path_5100" data-name="Path 5100" d="M430.89,203.94a1.62,1.62,0,1,1,3.24,0v2.94c1.76-2.6,4.33-4.83,8.32-4.83,5.21,0,10.38,4.12,10.38,11.26v.08c0,7.1-5.13,11.3-10.38,11.3a9.8,9.8,0,0,1-8.321-4.621v9.451a1.58,1.58,0,0,1-1.6,1.64,1.62,1.62,0,0,1-1.64-1.64Zm18.61,9.49v-.08c0-5.12-3.53-8.4-7.65-8.4a8.1,8.1,0,0,0-7.86,8.36v.08a8.09,8.09,0,0,0,7.86,8.4c4.21.01,7.65-3.1,7.65-8.35Z" fill="#008fd5"/>
        <path id="Path_5101" data-name="Path 5101" d="M456.71,195.71a1.92,1.92,0,0,1,3.82,0v.55a1.92,1.92,0,0,1-3.82,0Zm.29,8.24a1.63,1.63,0,0,1,1.6-1.64,1.61,1.61,0,0,1,1.64,1.64v18.86a1.58,1.58,0,0,1-1.6,1.64,1.61,1.61,0,0,1-1.64-1.64Z" fill="#008fd5"/>
        <path id="Path_5102" data-name="Path 5102" d="M465.66,203.94a1.63,1.63,0,0,1,1.6-1.64,1.61,1.61,0,0,1,1.64,1.64V208c1.6-3.62,4.75-5.8,7.48-5.8a1.55,1.55,0,0,1,1.6,1.63,1.61,1.61,0,0,1-1.43,1.64c-4.2.51-7.64,3.66-7.64,9.92v7.39a1.62,1.62,0,0,1-3.24,0Z" fill="#008fd5"/>
        <path id="Path_5103" data-name="Path 5103" d="M489.16,224.74c-6,0-10.84-4.58-10.84-11.3v-.08c0-6.26,4.41-11.3,10.42-11.3,6.43,0,10.08,5.25,10.08,11a1.51,1.51,0,0,1-1.51,1.51H481.6c.46,4.7,3.78,7.35,7.65,7.35a8.88,8.88,0,0,0,6.26-2.52,1.362,1.362,0,1,1,1.84,2,11.05,11.05,0,0,1-8.19,3.34Zm6.43-12.56c-.34-3.95-2.61-7.39-6.93-7.39-3.78,0-6.64,3.15-7.06,7.39Z" fill="#008fd5"/>
        <path id="Path_5104" data-name="Path 5104" d="M514.1,218.48V205.37h-1.76a1.47,1.47,0,0,1-1.43-1.43,1.44,1.44,0,0,1,1.43-1.43h1.76v-5.12a1.6,1.6,0,0,1,1.6-1.64,1.67,1.67,0,0,1,1.64,1.64v5.12H523a1.48,1.48,0,0,1,1.47,1.43,1.45,1.45,0,0,1-1.47,1.43h-5.63v12.69c0,2.65,1.47,3.62,3.66,3.62a9.17,9.17,0,0,0,2-.29,1.4,1.4,0,0,1,1.39,1.39,1.35,1.35,0,0,1-.92,1.26,8.221,8.221,0,0,1-3.19.59C516.75,224.61,514.1,222.89,514.1,218.48Z" fill="#008fd5"/>
        <path id="Path_5105" data-name="Path 5105" d="M525.87,213.48v-.08a11.325,11.325,0,0,1,22.65-.08v.08a11.28,11.28,0,0,1-11.39,11.34,11.13,11.13,0,0,1-11.26-11.26Zm19.33,0v-.08a8.22,8.22,0,0,0-8.07-8.49c-4.7,0-7.94,3.82-7.94,8.4v.08a8.15,8.15,0,0,0,8,8.44C541.92,221.84,545.2,218.06,545.2,213.48Z" fill="#008fd5"/>
        <path id="Path_5106" data-name="Path 5106" d="M563.63,196.3a1.66,1.66,0,1,1,3.32,0v26.47a1.66,1.66,0,1,1-3.32,0Z" fill="#008fd5"/>
        <path id="Path_5107" data-name="Path 5107" d="M572.92,203.94a1.63,1.63,0,0,1,1.6-1.64,1.61,1.61,0,0,1,1.64,1.64v2.35a8.23,8.23,0,0,1,7.43-4.25c5.25,0,8.32,3.53,8.32,8.7V222.8a1.62,1.62,0,0,1-3.24,0V211.55c0-4-2.19-6.55-6-6.55s-6.51,2.73-6.51,6.81v11a1.58,1.58,0,0,1-1.6,1.64,1.61,1.61,0,0,1-1.64-1.64Z" fill="#008fd5"/>
        <path id="Path_5108" data-name="Path 5108" d="M595.55,221.92a1.46,1.46,0,0,1-.59-1.18,1.41,1.41,0,0,1,1.43-1.39,1.3,1.3,0,0,1,.8.25,12.2,12.2,0,0,0,6.89,2.31c2.61,0,4.49-1.34,4.49-3.44v-.09c0-2.18-2.56-3-5.42-3.82-3.4-1-7.18-2.14-7.18-6.13v-.08c0-3.74,3.11-6.22,7.39-6.22a15.15,15.15,0,0,1,6.93,1.85,1.58,1.58,0,0,1,.8,1.35,1.41,1.41,0,0,1-1.43,1.39,1.58,1.58,0,0,1-.71-.17,11.75,11.75,0,0,0-5.67-1.68c-2.56,0-4.2,1.35-4.2,3.15v.08c0,2.06,2.69,2.85,5.59,3.74,3.36,1,7,2.31,7,6.22v.09c0,4.11-3.4,6.51-7.73,6.51a15,15,0,0,1-8.39-2.74Z" fill="#008fd5"/>
        <path id="Path_5109" data-name="Path 5109" d="M615.56,203.94a1.62,1.62,0,1,1,3.24,0v2.94c1.76-2.6,4.33-4.83,8.32-4.83,5.21,0,10.38,4.12,10.38,11.26v.08c0,7.1-5.13,11.3-10.38,11.3a9.8,9.8,0,0,1-8.32-4.621v9.451a1.58,1.58,0,0,1-1.6,1.64,1.62,1.62,0,0,1-1.64-1.64Zm18.61,9.49v-.08c0-5.12-3.53-8.4-7.65-8.4a8.1,8.1,0,0,0-7.86,8.36v.08a8.09,8.09,0,0,0,7.86,8.4c4.21.01,7.65-3.1,7.65-8.35Z" fill="#008fd5"/>
        <path id="Path_5110" data-name="Path 5110" d="M641.38,195.71a1.92,1.92,0,0,1,3.82,0v.55a1.92,1.92,0,0,1-3.82,0Zm.29,8.24a1.63,1.63,0,0,1,1.6-1.64,1.61,1.61,0,0,1,1.64,1.64v18.86a1.58,1.58,0,0,1-1.6,1.64,1.61,1.61,0,0,1-1.64-1.64Z" fill="#008fd5"/>
        <path id="Path_5111" data-name="Path 5111" d="M650.33,203.94a1.63,1.63,0,0,1,1.6-1.64,1.61,1.61,0,0,1,1.64,1.64V208c1.6-3.62,4.75-5.8,7.48-5.8a1.55,1.55,0,0,1,1.6,1.63,1.61,1.61,0,0,1-1.43,1.64c-4.2.51-7.64,3.66-7.64,9.92v7.39a1.62,1.62,0,0,1-3.24,0Z" fill="#008fd5"/>
        <path id="Path_5112" data-name="Path 5112" d="M673.83,224.74c-6,0-10.84-4.58-10.84-11.3v-.08c0-6.26,4.41-11.3,10.42-11.3,6.43,0,10.08,5.25,10.08,11a1.51,1.51,0,0,1-1.51,1.51H666.26c.46,4.7,3.78,7.35,7.65,7.35a8.88,8.88,0,0,0,6.26-2.52,1.362,1.362,0,1,1,1.84,2,11.05,11.05,0,0,1-8.18,3.34Zm6.43-12.56c-.34-3.95-2.61-7.39-6.93-7.39-3.78,0-6.64,3.15-7.06,7.39Z" fill="#008fd5"/>
        <path id="Path_5113" data-name="Path 5113" d="M698.77,218.48V205.37H697a1.47,1.47,0,0,1-1.43-1.43,1.44,1.44,0,0,1,1.43-1.43h1.76v-5.12a1.6,1.6,0,0,1,1.6-1.64,1.67,1.67,0,0,1,1.64,1.64v5.12h5.63a1.48,1.48,0,0,1,1.47,1.43,1.45,1.45,0,0,1-1.47,1.43H702v12.69c0,2.65,1.47,3.62,3.66,3.62a9.2,9.2,0,0,0,2-.29,1.4,1.4,0,0,1,1.39,1.39,1.35,1.35,0,0,1-.92,1.26,8.221,8.221,0,0,1-3.19.59C701.41,224.61,698.77,222.89,698.77,218.48Z" fill="#008fd5"/>
        <path id="Path_5114" data-name="Path 5114" d="M712.52,195a1.62,1.62,0,1,1,3.24,0v11.3a8.23,8.23,0,0,1,7.43-4.25c5.25,0,8.32,3.53,8.32,8.7v12.06a1.62,1.62,0,0,1-3.24,0V211.55c0-4-2.19-6.55-6-6.55s-6.51,2.73-6.51,6.81v11a1.58,1.58,0,0,1-1.6,1.64,1.61,1.61,0,0,1-1.64-1.64Z" fill="#008fd5"/>
        <path id="Path_5115" data-name="Path 5115" d="M745.81,224.74c-6,0-10.84-4.58-10.84-11.3v-.08c0-6.26,4.41-11.3,10.42-11.3,6.43,0,10.08,5.25,10.08,11a1.51,1.51,0,0,1-1.51,1.51H738.25c.46,4.7,3.78,7.35,7.65,7.35a8.88,8.88,0,0,0,6.26-2.52,1.362,1.362,0,1,1,1.84,2A11.06,11.06,0,0,1,745.81,224.74Zm6.43-12.56c-.34-3.95-2.61-7.39-6.93-7.39-3.78,0-6.64,3.15-7.06,7.39Z" fill="#008fd5"/>
        <path id="Path_5116" data-name="Path 5116" d="M770.16,196.51a1.68,1.68,0,0,1,1.64-1.68h8.57c9.24,0,15.63,6.34,15.63,14.62v.09c0,8.28-6.39,14.7-15.63,14.7H771.8a1.68,1.68,0,0,1-1.64-1.68Zm10.21,24.66c7.44,0,12.19-5,12.19-11.56v-.08c0-6.52-4.75-11.64-12.19-11.64h-6.89v23.28Z" fill="#008fd5"/>
        <path id="Path_5117" data-name="Path 5117" d="M800.39,195.71a1.92,1.92,0,0,1,3.83,0v.55a1.92,1.92,0,0,1-3.83,0Zm.3,8.24a1.62,1.62,0,1,1,3.24,0v18.86a1.58,1.58,0,0,1-1.6,1.64,1.61,1.61,0,0,1-1.63-1.64Z" fill="#008fd5"/>
        <path id="Path_5118" data-name="Path 5118" d="M809.9,228.48a1.5,1.5,0,0,1-.84-1.35,1.55,1.55,0,0,1,1.47-1.43,1.34,1.34,0,0,1,.72.21,13.72,13.72,0,0,0,7.69,2.36c4.79,0,7.9-2.65,7.9-7.74V218a10.3,10.3,0,0,1-8.53,4.58,10,10,0,0,1-10.21-10.17v-.08a10.28,10.28,0,0,1,18.7-5.88v-2.48a1.61,1.61,0,0,1,1.6-1.64,1.64,1.64,0,0,1,1.64,1.64v16.51a10.46,10.46,0,0,1-2.77,7.69c-1.93,1.93-4.83,2.9-8.28,2.9A17,17,0,0,1,809.9,228.48Zm17-16.13v-.09c0-4.45-3.87-7.35-8-7.35a7.18,7.18,0,0,0-7.52,7.31v.08a7.35,7.35,0,0,0,7.52,7.39c4.1.01,8.01-2.97,8.01-7.34Z" fill="#008fd5"/>
        <path id="Path_5119" data-name="Path 5119" d="M835.17,195.71a1.92,1.92,0,0,1,3.83,0v.55a1.92,1.92,0,0,1-3.83,0Zm.3,8.24a1.62,1.62,0,1,1,3.24,0v18.86a1.58,1.58,0,0,1-1.6,1.64,1.61,1.61,0,0,1-1.63-1.64Z" fill="#008fd5"/>
        <path id="Path_5120" data-name="Path 5120" d="M845.26,218.48V205.37h-1.77a1.47,1.47,0,0,1-1.43-1.43,1.44,1.44,0,0,1,1.43-1.43h1.77v-5.12a1.61,1.61,0,0,1,1.6-1.64,1.67,1.67,0,0,1,1.64,1.64v5.12h5.63a1.48,1.48,0,0,1,1.47,1.43,1.45,1.45,0,0,1-1.47,1.43H848.5v12.69c0,2.65,1.47,3.62,3.66,3.62a9.13,9.13,0,0,0,2-.29,1.4,1.4,0,0,1,1.39,1.39,1.35,1.35,0,0,1-.93,1.26,8.21,8.21,0,0,1-3.19.59C847.9,224.61,845.26,222.89,845.26,218.48Z" fill="#008fd5"/>
        <path id="Path_5121" data-name="Path 5121" d="M857.37,217.94v-.09c0-4.58,3.78-7,9.28-7a23,23,0,0,1,6.68.92V211c0-3.91-2.4-5.92-6.47-5.92a13.51,13.51,0,0,0-5.63,1.22,1.671,1.671,0,0,1-.59.13,1.44,1.44,0,0,1-1.43-1.39,1.48,1.48,0,0,1,.88-1.35,17.16,17.16,0,0,1,7.1-1.47c3.07,0,5.42.8,7,2.39a8.59,8.59,0,0,1,2.23,6.34v11.89a1.53,1.53,0,0,1-1.55,1.6,1.49,1.49,0,0,1-1.56-1.51v-2a9.51,9.51,0,0,1-7.86,3.74C861.45,224.7,857.37,222.39,857.37,217.94Zm16-1.68v-2.1a22.59,22.59,0,0,0-6.39-.93c-4.07,0-6.34,1.77-6.34,4.5v.08c0,2.73,2.52,4.33,5.46,4.33,4,0,7.28-2.44,7.28-5.89Z" fill="#008fd5"/>
        <path id="Path_5122" data-name="Path 5122" d="M881.55,195a1.62,1.62,0,1,1,3.24,0v27.81a1.58,1.58,0,0,1-1.6,1.64,1.61,1.61,0,0,1-1.63-1.64Z" fill="#008fd5"/>
        <path id="Path_5123" data-name="Path 5123" d="M899.5,197.05a2.519,2.519,0,0,1-.17-.76,1.75,1.75,0,0,1,1.72-1.68,1.88,1.88,0,0,1,1.72,1.39l8.11,23.36,7.69-23.44a1.67,1.67,0,0,1,1.64-1.3h.21a1.71,1.71,0,0,1,1.64,1.3l7.69,23.44,8.15-23.44a1.69,1.69,0,0,1,1.6-1.3,1.74,1.74,0,0,1,1.68,1.64,2.86,2.86,0,0,1-.21.8l-9.41,26.13a1.86,1.86,0,0,1-1.72,1.43h-.25a1.86,1.86,0,0,1-1.72-1.43l-7.65-22.61-7.6,22.61a1.86,1.86,0,0,1-1.72,1.43h-.25a1.81,1.81,0,0,1-1.72-1.43Z" fill="#008fd5"/>
        <path id="Path_5124" data-name="Path 5124" d="M941,213.48v-.08a11.32,11.32,0,0,1,22.64-.08v.08a11.28,11.28,0,0,1-11.39,11.34A11.13,11.13,0,0,1,941,213.48Zm19.33,0v-.08a8.22,8.22,0,0,0-8.07-8.49c-4.7,0-7.94,3.82-7.94,8.4v.08a8.15,8.15,0,0,0,8,8.44,8.015,8.015,0,0,0,8.05-8.35Z" fill="#008fd5"/>
        <path id="Path_5125" data-name="Path 5125" d="M967.44,203.94a1.64,1.64,0,0,1,1.6-1.64,1.61,1.61,0,0,1,1.63,1.64V208c1.6-3.62,4.75-5.8,7.48-5.8a1.55,1.55,0,0,1,1.6,1.63,1.61,1.61,0,0,1-1.43,1.64c-4.2.51-7.65,3.66-7.65,9.92v7.39a1.62,1.62,0,0,1-3.24,0Z" fill="#008fd5"/>
        <path id="Path_5126" data-name="Path 5126" d="M982.67,195a1.62,1.62,0,0,1,3.24,0v27.81a1.58,1.58,0,0,1-1.6,1.64,1.61,1.61,0,0,1-1.63-1.64Z" fill="#008fd5"/>
        <path id="Path_5127" data-name="Path 5127" d="M1012,222.81a1.62,1.62,0,1,1-3.24,0v-2.94c-1.76,2.6-4.32,4.83-8.32,4.83-5.21,0-10.38-4.12-10.38-11.26v-.08c0-7.1,5.17-11.3,10.38-11.3a9.8,9.8,0,0,1,8.32,4.621V195a1.58,1.58,0,0,1,1.6-1.64A1.61,1.61,0,0,1,1012,195Zm-18.61-9.49v.08c0,5.12,3.57,8.4,7.65,8.4a8.11,8.11,0,0,0,7.86-8.4v-.08a8.07,8.07,0,0,0-7.86-8.36c-4.21-.01-7.65,3.1-7.65,8.35Z" fill="#008fd5"/>
      </g>
    </g>
  </g>
</svg>
