<svg preserveAspectRatio="none" width="100%" height="100%" overflow="visible" style="display: block;" viewBox="0 0 109 36" fill="none" xmlns="http://www.w3.org/2000/svg">
<g id="FTEL">
<path id="Vector" d="M57.8685 5.64653H47.7582C46.2263 5.67135 44.7388 6.16465 43.4957 7.06007C42.2527 7.95549 41.3138 9.21006 40.8054 10.655L40.5321 11.4138L36.1297 30.4762H46.2401C47.9363 30.4553 49.5757 29.8625 50.8927 28.7937C52.2098 27.7249 53.1273 26.2428 53.4965 24.5875L57.8685 5.64653ZM49.0637 14.601L47.4242 21.6432C47.2747 22.3866 46.8523 23.0471 46.2401 23.4948C45.6833 24.0008 44.9583 24.282 44.2058 24.284L46.4526 14.601H44.4791C44.2002 14.6125 43.9219 14.5673 43.661 14.4681C43.4001 14.369 43.162 14.218 42.9611 14.0243C42.7658 13.8245 42.6138 13.5866 42.5145 13.3255C42.4153 13.0643 42.3709 12.7856 42.3842 12.5066C42.3693 12.3247 42.3693 12.142 42.3842 11.9602H51.7355C52.0193 11.9463 52.3028 11.9903 52.569 12.0895C52.8352 12.1886 53.0785 12.3408 53.284 12.5369C53.4763 12.7388 53.6264 12.977 53.7255 13.2376C53.8245 13.4982 53.8706 13.776 53.8608 14.0546C53.8608 14.2367 53.8608 14.4189 53.8608 14.601H49.0637Z" fill="var(--fill-0, #24B14B)"/>
<g id="Vector_2" filter="url(#filter0_d_56_86466)">
<path d="M26.5058 16.6647H32.487L32.9728 14.6007L26.9916 14.5703L26.5058 16.6647Z" fill="var(--fill-0, #F17228)"/>
</g>
<path id="Vector_3" d="M30.8472 0.121419C29.2286 0.12765 27.6562 0.661551 26.3685 1.64211C25.0809 2.62268 24.1483 3.99639 23.7122 5.55481L23.5301 6.28331L16.6684 36H26.7788C28.4358 35.9947 30.0437 35.4363 31.3472 34.4135C32.6508 33.3907 33.5754 31.962 33.9745 30.3541L40.9576 0L30.8472 0.121419ZM35.1282 16.8162C34.9359 17.6003 34.5128 18.3087 33.9137 18.8499C33.3348 19.2727 32.625 19.477 31.9099 19.4267H25.8376L25.3518 21.6425C25.1672 22.3789 24.7392 23.0313 24.1373 23.4941C23.5805 24.0001 22.8556 24.2814 22.1031 24.2833L24.9875 11.8685H33.8226C34.1085 11.8586 34.3934 11.9074 34.6597 12.0118C34.926 12.1162 35.1681 12.274 35.3711 12.4756C35.5626 12.6718 35.7124 12.9047 35.8115 13.1603C35.9106 13.4159 35.957 13.6889 35.9479 13.9629C35.9644 14.1548 35.9644 14.3478 35.9479 14.5396L35.1282 16.8162Z" fill="var(--fill-0, #F17228)"/>
<path id="Vector_4" d="M17.4883 23.7672L21.6478 5.55469H11.5374C9.94962 5.58506 8.41172 6.11455 7.14191 7.06804C5.87209 8.02153 4.93485 9.35061 4.46317 10.8667V11.0791L4.28101 11.7469L2.28882e-05 30.3844H10.3533C11.8505 30.3595 13.3037 29.8742 14.5151 28.9943C15.7266 28.1145 16.6375 26.8828 17.1239 25.467L17.4883 23.7672ZM15.7577 16.8161C15.5731 17.5524 15.1451 18.2049 14.5432 18.6677C13.9864 19.1737 13.2615 19.4549 12.509 19.4569H7.89404L7.37788 21.6424C7.19184 22.3674 6.77956 23.0143 6.20085 23.4891C5.62213 23.964 4.90711 24.2421 4.15956 24.2832L6.49742 14.2056C6.699 13.5757 7.09158 13.0241 7.62078 12.6272C8.18211 12.1322 8.90654 11.862 9.655 11.8683H18.7635C18.5826 12.5987 18.1665 13.2493 17.5794 13.7199C17.0084 14.1986 16.2902 14.4666 15.5451 14.4788H9.29067L8.80488 16.5732H15.6666L15.7577 16.8161Z" fill="var(--fill-0, #1669B2)"/>
<path id="Vector_5" d="M55.1362 28.3798C55.1362 28.0967 55.192 27.8165 55.3003 27.555C55.4087 27.2935 55.5674 27.056 55.7676 26.8558C55.9678 26.6557 56.2054 26.497 56.467 26.3887C56.7285 26.2804 57.0088 26.2246 57.2919 26.2246C57.7183 26.2246 58.1351 26.351 58.4896 26.5878C58.8441 26.8246 59.1203 27.1612 59.2835 27.555C59.4466 27.9488 59.4893 28.3822 59.4062 28.8002C59.323 29.2183 59.1177 29.6023 58.8162 29.9037C58.5147 30.2051 58.1306 30.4103 57.7125 30.4935C57.2943 30.5766 56.8609 30.534 56.467 30.3709C56.0731 30.2077 55.7364 29.9315 55.4995 29.5771C55.2627 29.2227 55.1362 28.806 55.1362 28.3798ZM58.9011 28.3798C58.9134 28.1595 58.881 27.939 58.8061 27.7315C58.7311 27.5241 58.615 27.3338 58.4648 27.1723C58.3145 27.0107 58.1332 26.8812 57.9317 26.7914C57.7301 26.7015 57.5126 26.6533 57.2919 26.6496C56.9455 26.6252 56.5997 26.7056 56.2996 26.8803C55.9995 27.055 55.759 27.3159 55.6092 27.6292C55.4594 27.9424 55.4073 28.2935 55.4597 28.6367C55.5121 28.9799 55.6666 29.2994 55.9031 29.5536C56.1395 29.8079 56.4471 29.9851 56.7857 30.0623C57.1242 30.1395 57.4782 30.1131 57.8016 29.9865C58.1249 29.8599 58.4027 29.639 58.5988 29.3524C58.7949 29.0658 58.9002 28.7269 58.9011 28.3798ZM56.4722 27.1352H57.3526C57.9295 27.1352 58.2635 27.3477 58.2635 27.8637C58.2678 27.9486 58.2543 28.0334 58.2238 28.1127C58.1933 28.192 58.1465 28.2641 58.0864 28.3241C58.0263 28.3842 57.9543 28.4311 57.875 28.4615C57.7956 28.492 57.7108 28.5055 57.6259 28.5011L58.2635 29.5636H57.8081L57.2008 28.5315H56.9276V29.5636H56.4722V27.1352ZM56.9276 28.1673H57.3223C57.5652 28.1673 57.8081 28.1673 57.8081 27.8334C57.8081 27.4995 57.5348 27.4995 57.3223 27.4995H56.9276V28.1673Z" fill="var(--fill-0, #1669B2)"/>
<path id="Vector_6" d="M67.2504 15.9066V24.2237H65.7627V15.9066H63.5463V14.6621H69.4364V15.9066H67.2504Z" fill="var(--fill-0, #1669B2)"/>
<path id="Vector_7" d="M76.1162 20.6396L71.3798 21.2771C71.3825 21.5525 71.4427 21.8243 71.5568 22.0751C71.6709 22.3258 71.8362 22.5499 72.0421 22.7329C72.248 22.9159 72.49 23.0537 72.7524 23.1376C73.0149 23.2214 73.292 23.2494 73.5659 23.2198C74.2477 23.2329 74.9233 23.0874 75.5393 22.7948L75.9644 23.8572C75.1874 24.2247 74.3339 24.4016 73.4747 24.3732C72.9977 24.4024 72.5201 24.328 72.0746 24.1551C71.6291 23.9822 71.2263 23.7149 70.894 23.3715C70.3241 22.5917 70.0169 21.651 70.0169 20.6852C70.0169 19.7194 70.3241 18.7786 70.894 17.9989C71.1853 17.6673 71.5453 17.4032 71.9491 17.2249C72.3528 17.0467 72.7906 16.9586 73.2319 16.9668C73.6323 16.9524 74.0316 17.0174 74.4068 17.1581C74.782 17.2988 75.1256 17.5123 75.4179 17.7864C75.9542 18.4314 76.2255 19.2559 76.1769 20.0933V20.6396M74.8106 19.8505C74.8106 18.6363 74.2641 17.9989 73.2015 17.9989C72.9476 17.9939 72.6958 18.0458 72.4646 18.1509C72.2335 18.2559 72.0288 18.4114 71.8656 18.6059C71.5024 19.1075 71.3204 19.7176 71.3494 20.3361L74.8106 19.8505Z" fill="var(--fill-0, #1669B2)"/>
<path id="Vector_8" d="M78.6061 13.8398H77.1488V24.221H78.6061V13.8398Z" fill="var(--fill-0, #1669B2)"/>
<path id="Vector_9" d="M85.8018 20.6404L81.0654 21.2778C81.068 21.5533 81.1283 21.8251 81.2424 22.0758C81.3564 22.3265 81.5217 22.5506 81.7277 22.7336C81.9336 22.9166 82.1755 23.0544 82.438 23.1383C82.7004 23.2222 82.9775 23.2502 83.2514 23.2205C83.9238 23.2368 84.5903 23.0911 85.1945 22.7955L85.6196 23.8579C84.8533 24.2252 84.0097 24.4022 83.1603 24.3739C82.6787 24.4036 82.1964 24.3295 81.746 24.1567C81.2955 23.9839 80.8874 23.7164 80.5492 23.3722C79.904 22.6134 79.5776 21.6344 79.6384 20.6404C79.6009 19.6873 79.902 18.7518 80.4885 17.9996C80.7831 17.664 81.148 17.3976 81.5573 17.2192C81.9667 17.0408 82.4104 16.9549 82.8567 16.9675C83.2535 16.9448 83.6506 17.006 84.0221 17.1473C84.3935 17.2885 84.731 17.5065 85.0124 17.7871C85.5596 18.4276 85.842 19.2526 85.8018 20.094V20.6404ZM84.4051 19.8512C84.4051 18.637 83.889 17.9996 82.8263 17.9996C82.5724 17.9946 82.3207 18.0466 82.0895 18.1516C81.8584 18.2567 81.6536 18.4121 81.4904 18.6066C81.1272 19.1082 80.9452 19.7183 80.9743 20.3368L84.4051 19.8512Z" fill="var(--fill-0, #1669B2)"/>
<path id="Vector_10" d="M91.5697 23.8882C91.021 24.2201 90.389 24.3886 89.7479 24.3739C89.3484 24.3762 88.9523 24.2997 88.5824 24.1486C88.2125 23.9976 87.876 23.775 87.5923 23.4936C86.9149 22.702 86.5671 21.6807 86.6207 20.6403C86.5671 19.6183 86.9158 18.6159 87.5923 17.8478C87.8671 17.5547 88.202 17.3243 88.574 17.1724C88.946 17.0204 89.3464 16.9506 89.7479 16.9675C90.3913 16.932 91.0294 17.1021 91.5697 17.4532L91.1142 18.4852C90.7604 18.2613 90.3489 18.1452 89.9301 18.1513C89.6876 18.143 89.4463 18.1907 89.2251 18.2907C89.004 18.3907 88.8088 18.5404 88.6549 18.728C88.2631 19.286 88.0706 19.9596 88.1084 20.6403C88.0612 21.3268 88.2663 22.0068 88.6853 22.5527C88.8345 22.7401 89.0237 22.8919 89.239 22.997C89.4544 23.102 89.6905 23.1576 89.9301 23.1597C90.3537 23.1685 90.7689 23.0409 91.1142 22.7955L91.5697 23.8882Z" fill="var(--fill-0, #1669B2)"/>
<path id="Vector_11" d="M97.6426 23.3124C97.3576 23.6509 97.002 23.9229 96.6008 24.1096C96.1996 24.2962 95.7625 24.3929 95.32 24.3929C94.8774 24.3929 94.4402 24.2962 94.039 24.1096C93.6378 23.9229 93.2823 23.6509 92.9973 23.3124C92.4263 22.5421 92.1369 21.5992 92.1775 20.6412C92.1313 19.6919 92.4216 18.7568 92.9973 18.0004C93.2823 17.662 93.6378 17.3899 94.039 17.2033C94.4402 17.0166 94.8774 16.9199 95.32 16.9199C95.7625 16.9199 96.1996 17.0166 96.6008 17.2033C97.002 17.3899 97.3576 17.662 97.6426 18.0004C98.2183 18.7568 98.5086 19.6919 98.4624 20.6412C98.503 21.5992 98.2136 22.5421 97.6426 23.3124ZM96.5799 18.7896C96.452 18.5743 96.2696 18.3964 96.0511 18.2738C95.8326 18.1513 95.5857 18.0884 95.3352 18.0915C95.0801 18.0861 94.828 18.1477 94.6042 18.2702C94.3805 18.3928 94.1928 18.5719 94.06 18.7896C93.7805 19.3669 93.6352 19.9999 93.6352 20.6412C93.6352 21.2826 93.7805 21.9156 94.06 22.4928C94.1928 22.7106 94.3805 22.8898 94.6042 23.0123C94.828 23.1348 95.0801 23.1964 95.3352 23.191C95.5857 23.1941 95.8326 23.1313 96.0511 23.0087C96.2696 22.8861 96.452 22.7082 96.5799 22.4928C96.8594 21.9156 97.0047 21.2826 97.0047 20.6412C97.0047 19.9999 96.8594 19.3669 96.5799 18.7896Z" fill="var(--fill-0, #1669B2)"/>
<path id="Vector_12" d="M107.57 24.2225V19.2748C107.575 19.099 107.542 18.9242 107.474 18.762C107.406 18.5998 107.304 18.4539 107.176 18.3338C106.903 18.1083 106.558 17.9896 106.204 17.9999C105.964 17.9779 105.722 18.0102 105.496 18.0942C105.27 18.1783 105.066 18.312 104.898 18.4856V24.1011H103.441V19.2748C103.442 19.1128 103.408 18.9524 103.34 18.8054C103.271 18.6584 103.171 18.5284 103.046 18.4249C102.736 18.2082 102.362 18.1014 101.984 18.1214C101.569 18.1084 101.155 18.1807 100.769 18.3338V24.2225H99.312V17.4536C100.132 17.1241 101.009 16.9591 101.893 16.9679C102.304 16.933 102.718 16.9823 103.109 17.1128C103.501 17.2433 103.862 17.4522 104.17 17.7267C104.836 17.1866 105.681 16.9158 106.538 16.9679C106.862 16.9459 107.187 16.9882 107.494 17.0924C107.802 17.1966 108.086 17.3606 108.329 17.575C108.554 17.7888 108.73 18.0486 108.846 18.3368C108.961 18.6249 109.013 18.9345 108.997 19.2445V24.2225H107.57Z" fill="var(--fill-0, #1669B2)"/>
</g>
<defs>
<filter id="filter0_d_56_86466" x="18.743" y="10.6889" width="18.8875" height="14.5149" filterUnits="userSpaceOnUse" color-interpolation-filters="sRGB">
<feFlood flood-opacity="0" result="BackgroundImageFix"/>
<feColorMatrix in="SourceAlpha" type="matrix" values="0 0 0 0 0 0 0 0 0 0 0 0 0 0 0 0 0 0 127 0" result="hardAlpha"/>
<feOffset dx="-1.55256" dy="2.32884"/>
<feGaussianBlur stdDeviation="3.10512"/>
<feComposite in2="hardAlpha" operator="out"/>
<feColorMatrix type="matrix" values="0 0 0 0 0.270588 0 0 0 0 0.392157 0 0 0 0 0.929412 0 0 0 0.16 0"/>
<feBlend mode="normal" in2="BackgroundImageFix" result="effect1_dropShadow_56_86466"/>
<feBlend mode="normal" in="SourceGraphic" in2="effect1_dropShadow_56_86466" result="shape"/>
</filter>
</defs>
</svg>
